<mxfile host="app.diagrams.net" modified="2023-12-16T09:13:41.668Z" agent="Mozilla/5.0 (Macintosh; Intel Mac OS X 10_15_7) AppleWebKit/537.36 (KHTML, like Gecko) Chrome/120.0.0.0 Safari/537.36" etag="Hbeazdh15Xc2F8ldvpAN" version="22.1.11" type="github">
  <diagram name="Page-1" id="JakNetywRGzXVHfu_kaK">
    <mxGraphModel dx="954" dy="620" grid="1" gridSize="10" guides="1" tooltips="1" connect="1" arrows="1" fold="1" page="1" pageScale="1" pageWidth="827" pageHeight="1169" math="0" shadow="0">
      <root>
        <mxCell id="0" />
        <mxCell id="1" parent="0" />
        <mxCell id="1lMt6eo6NQOrv_nqaNE4-1" value="HomeRegister" style="whiteSpace=wrap;html=1;aspect=fixed;" vertex="1" parent="1">
          <mxGeometry x="400" y="50" width="110" height="110" as="geometry" />
        </mxCell>
        <mxCell id="1lMt6eo6NQOrv_nqaNE4-2" value="Home" style="ellipse;whiteSpace=wrap;html=1;" vertex="1" parent="1">
          <mxGeometry x="20" y="40" width="120" height="80" as="geometry" />
        </mxCell>
        <mxCell id="1lMt6eo6NQOrv_nqaNE4-5" value="Devices&lt;br&gt;" style="swimlane;whiteSpace=wrap;html=1;" vertex="1" parent="1">
          <mxGeometry x="170" y="50" width="200" height="110" as="geometry" />
        </mxCell>
        <mxCell id="1lMt6eo6NQOrv_nqaNE4-6" value="Name" style="text;html=1;align=center;verticalAlign=middle;resizable=0;points=[];autosize=1;strokeColor=none;fillColor=none;" vertex="1" parent="1lMt6eo6NQOrv_nqaNE4-5">
          <mxGeometry x="15" y="40" width="60" height="30" as="geometry" />
        </mxCell>
        <mxCell id="1lMt6eo6NQOrv_nqaNE4-7" value="Electricity consumption" style="text;html=1;align=center;verticalAlign=middle;resizable=0;points=[];autosize=1;strokeColor=none;fillColor=none;" vertex="1" parent="1lMt6eo6NQOrv_nqaNE4-5">
          <mxGeometry x="20" y="70" width="150" height="30" as="geometry" />
        </mxCell>
        <mxCell id="1lMt6eo6NQOrv_nqaNE4-8" value="People" style="swimlane;whiteSpace=wrap;html=1;" vertex="1" parent="1">
          <mxGeometry x="170" y="170" width="200" height="130" as="geometry" />
        </mxCell>
        <mxCell id="1lMt6eo6NQOrv_nqaNE4-9" value="young/old" style="text;html=1;align=center;verticalAlign=middle;resizable=0;points=[];autosize=1;strokeColor=none;fillColor=none;" vertex="1" parent="1lMt6eo6NQOrv_nqaNE4-8">
          <mxGeometry x="10" y="40" width="80" height="30" as="geometry" />
        </mxCell>
        <mxCell id="1lMt6eo6NQOrv_nqaNE4-11" value="Text" style="text;html=1;align=center;verticalAlign=middle;resizable=0;points=[];autosize=1;strokeColor=none;fillColor=none;" vertex="1" parent="1lMt6eo6NQOrv_nqaNE4-8">
          <mxGeometry x="20" y="98" width="50" height="30" as="geometry" />
        </mxCell>
        <mxCell id="1lMt6eo6NQOrv_nqaNE4-10" value="salasry/pension" style="text;html=1;align=center;verticalAlign=middle;resizable=0;points=[];autosize=1;strokeColor=none;fillColor=none;" vertex="1" parent="1lMt6eo6NQOrv_nqaNE4-8">
          <mxGeometry x="20" y="68" width="110" height="30" as="geometry" />
        </mxCell>
        <mxCell id="1lMt6eo6NQOrv_nqaNE4-12" value="Vertical Container" style="swimlane;whiteSpace=wrap;html=1;" vertex="1" parent="1">
          <mxGeometry x="400" y="200" width="200" height="200" as="geometry" />
        </mxCell>
        <mxCell id="1lMt6eo6NQOrv_nqaNE4-13" value="Vertical Container" style="swimlane;whiteSpace=wrap;html=1;" vertex="1" parent="1">
          <mxGeometry x="170" y="320" width="200" height="200" as="geometry" />
        </mxCell>
      </root>
    </mxGraphModel>
  </diagram>
</mxfile>
